<svg width="119" height="30" viewBox="0 0 119 30" fill="none" xmlns="http://www.w3.org/2000/svg">
<path fill-rule="evenodd" clip-rule="evenodd" d="M12.6116 0L0 7.38636V15L7.8125 10.4545L17.7455 15.4545L25 10.4545V7.38636L12.6116 0ZM57.01 25H52.051L43.757 12.443V25H38.798V4.642H43.757L52.051 17.257V4.642H57.01V25ZM75.8586 16.648C75.8586 17.112 75.8296 17.5953 75.7716 18.098H64.5486C64.626 19.1033 64.945 19.8767 65.5056 20.418C66.0856 20.94 66.7913 21.201 67.6226 21.201C68.86 21.201 69.7203 20.679 70.2036 19.635H75.4816C75.211 20.6983 74.718 21.6553 74.0026 22.506C73.3066 23.3567 72.427 24.0237 71.3636 24.507C70.3003 24.9903 69.1113 25.232 67.7966 25.232C66.2113 25.232 64.8 24.8937 63.5626 24.217C62.3253 23.5403 61.3586 22.5737 60.6626 21.317C59.9666 20.0603 59.6186 18.591 59.6186 16.909C59.6186 15.227 59.957 13.7577 60.6336 12.501C61.3296 11.2443 62.2963 10.2777 63.5336 9.601C64.771 8.92433 66.192 8.586 67.7966 8.586C69.3626 8.586 70.7546 8.91467 71.9726 9.572C73.1906 10.2293 74.138 11.167 74.8146 12.385C75.5106 13.603 75.8586 15.024 75.8586 16.648ZM70.7836 15.343C70.7836 14.4923 70.4936 13.8157 69.9136 13.313C69.3336 12.8103 68.6086 12.559 67.7386 12.559C66.9073 12.559 66.2016 12.8007 65.6216 13.284C65.061 13.7673 64.713 14.4537 64.5776 15.343H70.7836ZM85.8408 25.232C84.2554 25.232 82.8248 24.8937 81.5488 24.217C80.2921 23.5403 79.2964 22.5737 78.5618 21.317C77.8464 20.0603 77.4888 18.591 77.4888 16.909C77.4888 15.2463 77.8561 13.7867 78.5908 12.53C79.3254 11.254 80.3308 10.2777 81.6068 9.601C82.8828 8.92433 84.3134 8.586 85.8988 8.586C87.4841 8.586 88.9148 8.92433 90.1908 9.601C91.4668 10.2777 92.4721 11.254 93.2068 12.53C93.9414 13.7867 94.3088 15.2463 94.3088 16.909C94.3088 18.5717 93.9318 20.041 93.1778 21.317C92.4431 22.5737 91.4281 23.5403 90.1328 24.217C88.8568 24.8937 87.4261 25.232 85.8408 25.232ZM85.8408 20.94C86.7881 20.94 87.5904 20.592 88.2478 19.896C88.9244 19.2 89.2628 18.2043 89.2628 16.909C89.2628 15.6137 88.9341 14.618 88.2768 13.922C87.6388 13.226 86.8461 12.878 85.8988 12.878C84.9321 12.878 84.1298 13.226 83.4918 13.922C82.8538 14.5987 82.5348 15.5943 82.5348 16.909C82.5348 18.2043 82.8441 19.2 83.4628 19.896C84.1008 20.592 84.8934 20.94 85.8408 20.94ZM110.193 4.642V8.615H101.899V12.907H108.105V16.764H101.899V25H96.9396V4.642H110.193ZM115.293 7.136C114.423 7.136 113.708 6.88467 113.147 6.382C112.606 5.86 112.335 5.222 112.335 4.468C112.335 3.69467 112.606 3.05667 113.147 2.554C113.708 2.032 114.423 1.771 115.293 1.771C116.144 1.771 116.84 2.032 117.381 2.554C117.942 3.05667 118.222 3.69467 118.222 4.468C118.222 5.222 117.942 5.86 117.381 6.382C116.84 6.88467 116.144 7.136 115.293 7.136ZM117.758 25H112.799V8.818H117.758V25ZM25 22.6136L12.3884 30L0 22.6136V19.5455L7.25447 14.5455L17.1875 19.5455L25 15V22.6136Z" fill="url(#paint0_linear_1103_15)"/>
<defs>
<linearGradient id="paint0_linear_1103_15" x1="49.1788" y1="35.2159" x2="-5.84382" y2="28.4129" gradientUnits="userSpaceOnUse">
<stop offset="0.415734" stop-color="#3387D5"/>
<stop offset="1" stop-color="#7A06C9"/>
</linearGradient>
</defs>
</svg>
